# xmcd
#
# Track frame offsets:
#	150
#	18552
#	35068
#	49602
#	60010
#	73782
#	88774
#	99267
#	113373
#	137285
#	155799
#	169312
#	179284
# Disc length: 2623 seconds
# Revision: 1
# Processed by: cddbd v1.5.2PL0 Copyright (c) Steve Scherf et al.
#
# Submitted via: libkcddb 0.21
#
DISCID=a10a3d0d
DTITLE=Soaz Lelay - The Milk
DYEAR=2006
DGENRE=Fusion
TTITLE0=leo's song
TTITLE1=sad days
TTITLE2=genius
TTITLE3=veins
TTITLE4=rescue
TTITLE5=starving
TTITLE6=mood
TTITLE7=black sun
TTITLE8=the fog
TTITLE9=things
TTITLE10=the tramp
TTITLE11=leave you
TTITLE12=trip
EXTD=
EXTT0=
EXTT1=
EXTT2=
EXTT3=
EXTT4=
EXTT5=
EXTT6=
EXTT7=
EXTT8=
EXTT9=
EXTT10=
EXTT11=
EXTT12=
PLAYORDER=
